<svg id="svg" xmlns="http://www.w3.org/2000/svg" xmlns:xlink="http://www.w3.org/1999/xlink" width="400" height="400" viewBox="0, 0, 400,400"><g id="svgg"><path id="path0" d="M175.000 1.154 C 116.047 8.886,65.767 40.317,32.349 90.327 C -10.049 153.775,-11.012 240.662,29.960 305.966 C 118.391 446.916,330.853 424.902,388.207 268.847 C 439.577 129.075,322.305 -18.166,175.000 1.154 M222.656 27.046 C 340.082 41.818,409.381 171.201,356.472 276.884 C 291.852 405.960,109.336 406.716,44.215 278.177 C -18.674 154.045,83.962 9.599,222.656 27.046 M110.144 92.855 C 101.176 97.627,101.712 107.257,111.508 117.323 L 117.498 123.478 111.955 129.122 C 105.561 135.632,103.906 138.487,103.906 143.007 C 103.906 150.012,109.034 155.456,115.761 155.591 C 121.228 155.701,122.616 154.953,129.471 148.201 L 135.894 141.874 141.971 147.770 C 152.027 157.528,159.025 158.569,165.439 151.264 C 171.105 144.811,169.981 139.355,161.120 130.300 L 154.405 123.438 161.120 116.575 C 169.763 107.743,171.049 102.219,165.891 96.089 C 159.552 88.554,151.821 89.501,142.052 99.008 L 135.895 105.000 129.862 99.071 C 121.464 90.820,116.757 89.336,110.144 92.855 M237.821 92.884 C 228.558 98.532,228.909 106.386,238.880 116.575 L 245.595 123.438 238.880 130.300 C 230.019 139.355,228.895 144.811,234.561 151.264 C 240.975 158.569,247.973 157.528,258.029 147.770 L 264.106 141.874 270.529 148.201 C 277.384 154.953,278.772 155.701,284.239 155.591 C 290.966 155.456,296.094 150.012,296.094 143.007 C 296.094 138.487,294.439 135.632,288.045 129.122 L 282.502 123.478 288.492 117.323 C 296.660 108.930,298.112 103.956,294.323 97.347 C 289.205 88.420,280.335 89.052,270.138 99.071 L 264.105 105.000 257.948 99.008 C 249.768 91.048,243.807 89.234,237.821 92.884 M190.234 242.280 C 152.150 244.745,101.457 275.330,103.320 294.719 C 104.635 308.408,117.840 310.155,129.391 298.167 C 168.497 257.581,229.585 257.128,269.583 297.126 C 279.494 307.038,285.010 308.799,291.340 304.074 C 301.414 296.552,298.046 286.508,280.383 271.402 C 255.179 249.846,224.828 240.041,190.234 242.280 " stroke="none" fill="#000000" fill-rule="evenodd"></path></g></svg>