<svg id="svg" xmlns="http://www.w3.org/2000/svg" xmlns:xlink="http://www.w3.org/1999/xlink" width="400" height="400" viewBox="0, 0, 400,400"><g id="svgg"><path id="path0" d="M175.000 1.154 C 12.212 22.505,-58.087 219.622,54.893 337.932 C 167.277 455.618,365.598 397.585,396.768 237.891 C 422.654 105.270,308.695 -16.381,175.000 1.154 M222.656 27.046 C 340.082 41.818,409.381 171.201,356.472 276.884 C 291.852 405.960,109.336 406.716,44.215 278.177 C -18.674 154.045,83.962 9.599,222.656 27.046 M113.219 125.801 C 93.803 129.022,85.782 152.936,99.049 168.046 C 105.556 175.457,118.610 178.101,127.854 173.879 C 154.903 161.528,142.547 120.937,113.219 125.801 M278.125 125.802 C 253.430 129.843,249.254 163.426,272.146 173.879 C 281.390 178.101,294.444 175.457,300.951 168.046 C 316.918 149.861,301.823 121.925,278.125 125.802 M190.234 242.280 C 152.150 244.745,101.457 275.330,103.320 294.719 C 104.635 308.408,117.840 310.155,129.391 298.167 C 168.866 257.199,231.134 257.199,270.609 298.167 C 280.361 308.288,288.438 309.100,294.787 300.596 C 300.124 293.448,295.717 284.516,280.383 271.402 C 255.179 249.846,224.828 240.041,190.234 242.280 " stroke="none" fill="#000000" fill-rule="evenodd"></path></g></svg>