<svg id="svg" xmlns="http://www.w3.org/2000/svg" xmlns:xlink="http://www.w3.org/1999/xlink" width="400" height="400" viewBox="0, 0, 400,400"><g id="svgg"><path id="path0" d="M175.000 1.154 C 12.212 22.505,-58.087 219.622,54.893 337.932 C 167.277 455.618,365.598 397.585,396.768 237.891 C 422.654 105.270,308.695 -16.381,175.000 1.154 M222.656 27.046 C 340.063 41.816,409.371 171.192,356.484 276.858 C 291.865 405.964,109.346 406.735,44.215 278.177 C -18.674 154.045,83.962 9.599,222.656 27.046 M113.219 125.801 C 93.803 129.022,85.782 152.936,99.049 168.046 C 105.556 175.457,118.610 178.101,127.854 173.879 C 154.903 161.528,142.547 120.937,113.219 125.801 M278.125 125.802 C 253.430 129.843,249.254 163.426,272.146 173.879 C 281.390 178.101,294.444 175.457,300.951 168.046 C 316.918 149.861,301.823 121.925,278.125 125.802 M115.921 260.497 C 106.643 264.536,106.440 278.782,115.595 283.398 L 119.081 285.156 200.000 285.156 L 280.919 285.156 284.405 283.398 C 293.651 278.736,293.340 264.405,283.906 260.464 C 280.083 258.867,119.595 258.898,115.921 260.497 " stroke="none" fill="#000000" fill-rule="evenodd"></path></g></svg>