<svg id="svg" xmlns="http://www.w3.org/2000/svg" xmlns:xlink="http://www.w3.org/1999/xlink" width="400" height="400" viewBox="0, 0, 400,400"><g id="svgg"><path id="path0" d="M175.000 1.154 C 12.262 22.498,-58.093 219.616,54.824 337.860 C 167.277 455.618,365.586 397.642,396.768 237.891 C 422.654 105.270,308.695 -16.381,175.000 1.154 M222.656 27.046 C 340.067 41.816,409.380 171.201,356.485 276.858 C 291.850 405.965,109.347 406.737,44.215 278.177 C -18.674 154.045,83.962 9.599,222.656 27.046 M113.219 125.801 C 93.803 129.022,85.782 152.936,99.049 168.046 C 105.556 175.457,118.610 178.101,127.854 173.879 C 154.903 161.528,142.547 120.937,113.219 125.801 M278.125 125.802 C 253.430 129.843,249.254 163.426,272.146 173.879 C 281.390 178.101,294.444 175.457,300.951 168.046 C 316.918 149.861,301.823 121.925,278.125 125.802 M98.626 243.746 C 92.203 247.662,91.028 255.850,95.760 263.718 C 141.928 340.493,256.455 341.088,303.491 264.798 C 310.779 252.978,306.505 242.193,294.531 242.193 C 288.612 242.193,286.113 243.948,280.974 251.711 C 241.829 310.847,158.171 310.847,119.026 251.711 C 112.725 242.193,105.683 239.443,98.626 243.746 " stroke="none" fill="#000000" fill-rule="evenodd"></path></g></svg>